<?xml version="1.0" standalone="no"?>
<!DOCTYPE svg PUBLIC "-//W3C//DTD SVG 20010904//EN"
 "http://www.w3.org/TR/2001/REC-SVG-20010904/DTD/svg10.dtd">
<svg version="1.0" xmlns="http://www.w3.org/2000/svg"
 width="225.000000pt" height="225.000000pt" viewBox="0 0 225.000000 225.000000"
 preserveAspectRatio="xMidYMid meet">

<g transform="translate(0.000000,225.000000) scale(0.100000,-0.100000)"
fill="#000000" stroke="none">
<path d="M978 1665 c-83 -21 -154 -60 -216 -119 -98 -93 -147 -188 -172 -333
-26 -158 33 -337 146 -445 44 -41 136 -90 204 -108 25 -6 63 -21 86 -32 39
-20 42 -20 95 -5 30 9 88 21 129 28 151 23 337 105 434 190 33 29 58 43 79 43
39 1 65 36 73 99 l7 47 -42 0 c-48 0 -110 -23 -112 -42 -1 -7 -2 -22 -3 -33
-1 -13 -9 -21 -23 -23 -22 -3 -22 -2 -6 28 18 36 12 93 -12 120 -17 19 -20 40
-4 40 5 0 17 16 25 37 20 48 11 95 -26 129 -22 21 -27 32 -19 45 5 10 9 36 9
59 0 34 -6 48 -34 76 -20 20 -44 34 -59 34 -23 0 -24 2 -19 50 4 46 2 52 -31
85 -28 28 -43 35 -73 35 -22 0 -52 -8 -68 -18 -28 -17 -32 -17 -85 1 -74 25
-209 31 -283 12z m214 -9 c76 -15 144 -47 210 -98 51 -40 124 -152 155 -240
23 -64 26 -89 27 -208 1 -74 -3 -152 -8 -174 l-9 -39 49 8 c27 4 66 13 87 20
20 7 37 11 37 9 0 -8 -36 -49 -75 -86 -80 -76 -301 -169 -437 -184 -34 -4 -75
-13 -90 -20 -33 -17 -100 -18 -116 -2 -33 33 2 99 61 113 26 7 48 25 29 25
-49 0 -122 -55 -122 -92 0 -48 -155 10 -242 90 -105 97 -155 230 -145 387 15
251 174 445 402 491 81 16 101 16 187 0z m259 -12 c33 -17 62 -72 53 -101 -3
-10 -8 -24 -10 -32 -3 -10 -19 -1 -52 30 -26 25 -59 53 -74 62 -16 10 -28 21
-28 26 0 9 44 29 68 30 7 1 27 -6 43 -15z m136 -189 c30 -35 38 -69 23 -105
-17 -40 -33 -38 -49 8 -8 20 -25 54 -38 74 -12 21 -23 42 -23 47 0 19 65 1 87
-24z m44 -184 c31 -32 38 -71 18 -115 -17 -37 -39 -41 -39 -8 0 15 -6 55 -14
90 -7 34 -9 62 -4 62 5 0 23 -13 39 -29z m19 -265 c0 -32 -6 -48 -25 -66 -32
-30 -38 -23 -26 31 6 24 11 62 11 84 l1 40 19 -24 c13 -15 20 -38 20 -65z
m168 5 c18 -11 -4 -87 -31 -106 -25 -17 -53 -9 -36 11 19 23 3 45 -27 38 -23
-6 -25 -4 -22 17 2 19 12 26 48 36 57 14 53 14 68 4z"/>
<path d="M820 1310 c-21 -40 12 -80 53 -64 40 15 26 84 -18 84 -14 0 -29 -8
-35 -20z"/>
<path d="M1147 1118 c-31 -47 -39 -77 -33 -112 8 -44 51 -71 97 -61 33 8 89
70 89 100 -1 15 -6 10 -20 -17 -24 -44 -55 -68 -91 -68 -57 0 -78 74 -38 139
23 37 19 56 -4 19z"/>
</g>
</svg>
