<?xml version="1.0" standalone="no"?>
<!DOCTYPE svg PUBLIC "-//W3C//DTD SVG 20010904//EN"
 "http://www.w3.org/TR/2001/REC-SVG-20010904/DTD/svg10.dtd">
<svg version="1.0" xmlns="http://www.w3.org/2000/svg"
 width="235.000000pt" height="214.000000pt" viewBox="0 0 235.000000 214.000000"
 preserveAspectRatio="xMidYMid meet">

<g transform="translate(0.000000,214.000000) scale(0.100000,-0.100000)"
fill="#000000" stroke="none">
<path d="M1435 1788 c-132 -77 -445 -259 -695 -405 -250 -146 -465 -271 -477
-279 l-22 -14 40 -67 c22 -38 43 -67 47 -66 18 4 1417 825 1420 833 2 5 -14
38 -35 74 l-39 64 -239 -140z"/>
<path d="M1886 1791 c4 -15 2 -21 -4 -17 -6 4 -15 -15 -21 -44 -15 -68 -13
-82 4 -42 8 18 11 40 8 49 -4 10 -2 14 4 10 15 -9 24 33 12 52 -8 12 -8 10 -3
-8z"/>
<path d="M1598 1564 c-54 -29 -63 -85 -21 -134 25 -30 29 -32 87 -28 55 3 61
1 61 -17 0 -16 -7 -20 -37 -20 -21 -1 -45 -8 -54 -16 -14 -15 -13 -18 13 -39
38 -29 88 -22 126 20 31 35 33 49 11 96 -22 47 -46 57 -110 49 -51 -6 -54 -5
-54 15 0 16 5 21 23 19 32 -4 67 10 67 26 0 15 -49 45 -72 45 -7 -1 -25 -7
-40 -16z"/>
<path d="M1430 1460 c-36 -22 -69 -41 -74 -43 -8 -3 20 -67 30 -67 2 0 15 7
28 15 22 15 23 13 76 -79 l54 -94 26 16 c14 9 27 17 28 18 2 2 -19 42 -47 89
-28 48 -51 90 -51 94 0 4 11 14 25 21 24 13 24 14 8 42 -10 15 -22 28 -28 28
-5 -1 -39 -19 -75 -40z"/>
<path d="M1265 1364 c-33 -20 -63 -39 -68 -43 -6 -6 109 -219 132 -243 3 -4
38 12 78 35 l71 42 -14 28 c-18 33 -16 33 -66 5 -39 -22 -40 -22 -54 -3 -13
18 -12 21 21 37 19 10 35 21 35 24 0 5 -20 46 -26 53 -2 2 -19 -6 -38 -18 -33
-21 -35 -21 -45 -4 -8 15 -3 22 30 41 44 25 46 31 22 60 l-18 21 -60 -35z"/>
<path d="M1128 1284 c-26 -13 -28 -20 -28 -72 l0 -57 -25 42 -25 42 -29 -17
c-16 -9 -28 -19 -27 -22 45 -80 139 -240 141 -240 10 0 55 24 55 29 0 3 -9 21
-20 39 -11 18 -20 42 -20 53 0 18 6 15 51 -19 l52 -40 34 20 34 20 -82 57 -81
56 4 62 c2 35 1 63 -2 63 -3 -1 -17 -8 -32 -16z"/>
<path d="M1610 1014 c-239 -140 -559 -327 -712 -416 l-276 -162 26 -46 c15
-26 34 -57 42 -69 l16 -23 389 227 c215 126 537 314 716 418 l326 190 -39 69
c-22 37 -43 68 -46 67 -4 0 -203 -115 -442 -255z"/>
<path d="M880 1143 c-58 -40 -65 -89 -24 -172 34 -67 89 -106 136 -97 51 10
78 42 78 92 0 23 -3 49 -6 58 -6 14 -9 14 -33 0 -20 -12 -27 -23 -24 -38 6
-31 -19 -51 -47 -36 -29 15 -60 69 -60 103 0 15 2 27 4 27 2 0 11 3 19 6 8 3
21 -1 29 -10 13 -13 18 -12 41 3 l27 17 -28 27 c-37 35 -80 43 -112 20z"/>
<path d="M2270 1094 c0 -2 5 -14 11 -28 11 -23 49 -44 49 -26 0 13 -26 30 -35
22 -4 -4 -5 2 -1 14 4 15 2 21 -9 21 -8 0 -15 -2 -15 -3z"/>
<path d="M736 1055 c-10 -8 -23 -16 -28 -17 -11 -4 130 -248 142 -248 4 0 17
8 29 18 l21 17 -71 120 c-39 66 -71 121 -72 122 -1 1 -11 -5 -21 -12z"/>
<path d="M2225 1061 c6 -11 4 -13 -8 -8 -8 3 -21 0 -27 -8 -9 -11 -5 -15 24
-21 20 -3 43 -3 52 0 18 7 13 32 -6 28 -7 -1 -19 3 -28 10 -13 11 -14 11 -7
-1z m5 -25 c-7 -7 -13 -7 -20 0 -6 6 -3 10 10 10 13 0 16 -4 10 -10z"/>
<path d="M2125 1010 c-16 -10 -35 -22 -40 -27 -6 -4 -28 -17 -49 -27 -35 -19
-36 -21 -16 -28 23 -9 44 -2 35 12 -3 4 2 10 10 14 8 3 14 0 12 -7 -1 -7 6
-11 16 -9 29 5 19 -17 -10 -24 -44 -9 -79 -26 -65 -31 23 -9 12 -20 -16 -15
-18 2 -33 -2 -41 -12 -8 -9 -10 -16 -7 -16 4 0 1 -10 -5 -22 l-12 -22 29 18
c16 10 35 25 42 34 6 9 12 13 12 9 0 -4 18 3 40 14 22 12 38 25 35 29 -3 5 3
8 12 7 10 0 44 15 76 33 45 28 53 36 40 42 -10 3 -25 7 -33 7 -10 0 -8 -3 4
-8 13 -5 16 -10 8 -15 -17 -10 -52 12 -46 29 4 8 10 15 16 15 5 0 6 5 3 10 -8
13 -14 12 -50 -10z m20 -10 c-3 -5 -12 -10 -18 -10 -7 0 -6 4 3 10 19 12 23
12 15 0z m-39 -25 c-4 -13 -2 -14 14 -5 23 12 40 6 40 -16 0 -11 -4 -12 -19
-5 -10 6 -21 8 -24 4 -3 -3 -14 -3 -23 1 -13 5 -14 9 -4 21 16 19 24 19 16 0z
m-26 -79 c0 -2 -7 -6 -15 -10 -8 -3 -15 -1 -15 4 0 6 7 10 15 10 8 0 15 -2 15
-4z m-80 -40 c0 -2 -7 -7 -16 -10 -8 -3 -12 -2 -9 4 6 10 25 14 25 6z"/>
<path d="M2287 1023 c-4 -3 -7 -11 -7 -17 0 -6 5 -5 12 2 6 6 9 14 7 17 -3 3
-9 2 -12 -2z"/>
<path d="M24 1006 c-19 -14 -18 -15 4 -45 12 -17 22 -35 22 -40 0 -5 5 -13 12
-17 7 -5 9 -2 4 7 -4 8 6 -2 23 -21 22 -25 31 -29 31 -17 0 9 -5 17 -11 17 -5
0 -7 5 -3 11 8 14 34 -29 27 -46 -5 -16 -33 -15 -33 0 0 7 -7 19 -17 26 -15
13 -15 11 1 -19 9 -18 21 -30 27 -26 6 3 10 0 8 -7 -3 -25 1 -36 21 -59 16
-18 20 -20 20 -7 0 10 5 17 10 17 6 0 10 -8 8 -17 -4 -26 37 -28 68 -4 23 18
24 21 8 22 -18 0 -18 1 1 9 11 5 15 9 8 9 -20 2 -43 -11 -37 -20 3 -5 -3 -9
-13 -9 -10 0 -24 10 -32 22 -12 19 -14 20 -23 4 -10 -17 -28 -13 -28 7 0 7 4
6 10 -3 5 -8 10 -10 10 -4 0 5 -5 15 -10 20 -17 17 -1 43 22 36 18 -4 18 -6 4
-14 -29 -16 -17 -25 19 -14 44 14 44 22 0 30 -25 5 -39 15 -51 37 -12 25 -18
28 -30 18 -11 -9 -14 -8 -14 5 0 9 4 16 10 16 10 0 -24 63 -44 79 -9 8 -18 7
-32 -3z m14 -41 c-3 -3 -9 2 -12 12 -6 14 -5 15 5 6 7 -7 10 -15 7 -18z m36
-6 c-3 -5 0 -9 7 -9 10 0 10 -3 1 -12 -14 -14 -17 -11 -26 26 -6 26 -5 28 8
17 9 -7 13 -17 10 -22z m143 -205 c-3 -3 -12 -4 -19 -1 -8 3 -5 6 6 6 11 1 17
-2 13 -5z"/>
<path d="M597 974 l-77 -45 15 -29 c16 -31 33 -38 52 -19 17 17 26 7 78 -85
l48 -85 28 15 c16 8 29 17 29 19 0 2 -23 44 -51 91 l-52 87 26 19 c25 18 25
19 9 48 -9 17 -19 30 -22 30 -3 0 -40 -21 -83 -46z"/>
<path d="M2220 1000 c0 -6 7 -10 15 -10 8 0 17 0 20 0 16 0 6 14 -12 16 -13 2
-23 -1 -23 -6z"/>
<path d="M1914 887 c-38 -22 -72 -45 -76 -50 -3 -6 -14 -12 -24 -13 -27 -4
-40 -22 -21 -30 9 -3 14 -11 10 -17 -4 -6 0 -8 10 -4 10 3 17 2 17 -3 0 -5 12
-7 28 -5 15 2 30 4 34 4 4 1 5 8 2 16 -4 8 -1 15 5 15 6 0 11 -5 11 -11 0 -5
5 -7 10 -4 21 13 9 27 -20 23 -19 -3 -29 -1 -27 6 2 6 15 11 28 12 13 0 26 4
28 10 2 5 12 15 23 22 10 7 15 18 12 24 -4 6 2 8 17 4 l24 -7 -24 14 c-18 11
-20 15 -8 20 8 3 19 1 25 -5 6 -6 12 -6 16 0 16 26 -38 15 -100 -21z m43 -1
c0 -8 -6 -12 -12 -9 -7 2 -25 -7 -40 -21 -15 -14 -32 -26 -36 -26 -5 0 -18 -9
-29 -20 -16 -16 -25 -18 -38 -11 -10 7 -12 11 -4 12 6 1 16 2 21 3 5 0 24 12
42 26 25 19 69 47 95 60 0 0 1 -6 1 -14z m-92 -96 c3 -5 2 -10 -4 -10 -5 0
-13 5 -16 10 -3 6 -2 10 4 10 5 0 13 -4 16 -10z"/>
<path d="M245 831 c-6 -5 -21 -12 -35 -15 -14 -3 0 -3 31 -1 50 3 57 1 70 -20
10 -18 18 -22 29 -15 11 7 11 10 2 10 -7 0 -10 5 -7 10 10 16 -76 45 -90 31z"/>
<path d="M360 790 c0 -5 5 -10 11 -10 5 0 7 5 4 10 -3 6 -8 10 -11 10 -2 0 -4
-4 -4 -10z"/>
<path d="M1737 780 c-43 -27 -46 -36 -3 -11 37 21 38 21 33 2 -3 -15 -1 -18
11 -14 10 4 13 2 8 -5 -4 -7 -3 -12 3 -12 19 0 18 15 -3 36 -20 21 -22 21 -49
4z"/>
<path d="M353 756 c7 -18 -12 -36 -37 -36 -16 0 -17 3 -8 9 11 7 10 10 -3 15
-24 9 -32 7 -15 -4 17 -11 1 -13 -25 -4 -13 6 -14 9 -3 16 10 8 10 9 -1 6 -33
-9 -18 -26 39 -44 33 -10 60 -22 60 -26 0 -4 7 -5 16 -1 13 5 13 7 2 14 -10 7
-10 9 0 9 7 0 16 10 21 23 6 16 4 24 -8 29 -27 11 -43 9 -38 -6z"/>
<path d="M1721 746 c-9 -11 -8 -15 5 -20 9 -3 21 -3 27 0 7 3 4 -1 -6 -9 -13
-11 -15 -16 -5 -20 12 -4 89 34 113 55 14 13 -25 -2 -54 -21 -22 -14 -25 -13
-41 7 -21 26 -24 26 -39 8z"/>
<path d="M413 730 c-3 -11 -10 -20 -16 -20 -6 0 -7 -3 -4 -7 4 -3 2 -12 -4
-19 -7 -8 -7 -14 0 -19 6 -3 13 6 17 20 10 38 36 27 39 -17 2 -21 -11 -24 -18
-5 -2 6 -8 9 -12 5 -4 -4 6 -24 23 -45 16 -21 34 -51 40 -68 10 -27 11 -23 10
33 -1 35 -5 58 -9 51 -4 -7 -6 -16 -3 -20 2 -4 0 -10 -6 -14 -5 -3 -10 -3 -11
2 -4 44 -3 73 4 73 4 0 7 -5 7 -12 0 -6 2 -9 5 -6 8 7 -37 88 -48 88 -5 0 -11
-9 -14 -20z m31 -16 c5 -14 4 -15 -9 -4 -17 14 -19 20 -6 20 5 0 12 -7 15 -16z"/>
<path d="M1681 743 c0 -7 -4 -12 -8 -11 -18 5 -53 -14 -47 -24 5 -7 1 -9 -8
-5 -21 8 -30 -3 -17 -20 14 -17 -2 -17 -21 0 -12 10 -12 9 -1 -5 8 -11 9 -18
3 -18 -6 0 -14 5 -17 10 -4 6 -11 8 -16 4 -6 -4 -6 -11 2 -20 6 -8 8 -14 3
-14 -5 0 2 -9 16 -20 14 -11 20 -20 15 -20 -16 0 -56 31 -50 39 7 13 -39 5
-63 -10 -25 -16 -29 -51 -7 -72 15 -16 10 -27 -13 -27 -9 0 -13 7 -9 20 3 11
1 20 -3 20 -5 0 -7 9 -5 19 3 18 2 18 -25 3 -16 -9 -26 -20 -23 -25 3 -5 -1
-7 -8 -5 -21 4 -93 -43 -79 -52 8 -5 8 -9 -3 -13 -8 -3 -20 0 -27 6 -10 9 -11
9 -5 -2 6 -11 4 -13 -8 -8 -8 3 -21 -1 -27 -8 -10 -12 -8 -16 12 -24 13 -5 30
-16 37 -25 14 -17 36 -12 25 6 -5 7 -1 9 9 5 9 -3 19 -2 22 4 9 14 -23 23 -38
11 -9 -8 -19 -5 -37 9 -24 19 -24 20 -2 9 28 -14 71 9 68 36 0 9 5 19 13 22 8
2 11 0 8 -5 -3 -5 -1 -10 6 -11 7 0 29 -5 50 -10 20 -6 37 -7 37 -3 0 3 18 15
40 25 22 11 40 24 40 29 0 6 3 7 7 4 3 -4 22 3 42 15 50 29 55 35 40 43 -8 5
-10 4 -5 -3 10 -17 -3 -15 -20 2 -21 21 -17 26 14 20 16 -3 35 1 47 10 11 8
15 16 8 16 -6 0 -15 -4 -18 -10 -11 -17 -24 -11 -22 10 1 15 6 19 22 14 51
-17 51 -16 36 -6 -11 8 -11 10 0 15 8 4 1 4 -16 2 -16 -3 -24 -2 -17 1 6 3 10
9 7 14 -3 4 6 7 19 6 13 0 23 -3 21 -6 -2 -3 0 -12 5 -20 7 -12 12 -12 22 -2
9 9 9 12 -2 12 -13 0 -13 2 0 10 13 8 13 10 -2 10 -9 0 -19 8 -21 18 -3 9 -5
11 -6 5z m-133 -137 c22 -7 22 -9 6 -20 -9 -7 -27 -12 -38 -11 -12 1 -27 3
-35 4 -8 1 -5 8 10 21 13 10 19 19 14 20 -6 0 -16 -5 -23 -12 -9 -9 -12 -9
-12 0 0 19 34 33 45 18 6 -7 20 -16 33 -20z m-121 -31 c0 -17 -13 -20 -21 -6
-4 5 0 12 6 14 7 3 13 6 14 6 0 1 1 -6 1 -14z m73 -15 c0 -5 -4 -10 -10 -10
-5 0 -10 5 -10 10 0 6 5 10 10 10 6 0 10 -4 10 -10z m-76 -16 c9 -8 16 -17 16
-18 0 -9 -72 2 -82 12 -17 17 13 17 31 0 11 -11 13 -10 8 5 -8 21 6 22 27 1z"/>
<path d="M1510 592 c0 -5 7 -9 15 -9 8 0 12 4 9 9 -3 4 -9 8 -15 8 -5 0 -9 -4
-9 -8z"/>
<path d="M1694 669 c-23 -10 -47 -26 -55 -36 -9 -10 4 -6 36 12 80 45 88 56
19 24z"/>
<path d="M1347 503 c-11 -11 -8 -23 6 -20 6 1 11 -4 9 -11 -2 -10 2 -10 18 0
19 12 19 14 3 26 -19 14 -27 15 -36 5z"/>
<path d="M1189 465 c-1 -3 -2 -10 -3 -17 0 -6 -7 -13 -15 -16 -9 -3 -11 0 -6
9 5 7 -9 2 -31 -11 -54 -32 -58 -37 -33 -36 16 1 24 -7 30 -26 4 -16 3 -30 -2
-34 -5 -3 -9 0 -9 5 0 6 -5 11 -12 11 -6 0 -9 -3 -5 -6 8 -9 -36 -44 -46 -37
-5 3 0 12 10 20 17 14 17 14 0 9 -10 -3 -23 -6 -28 -6 -6 0 -7 -4 -4 -10 4 -6
-1 -7 -11 -3 -12 4 -15 3 -10 -5 4 -7 14 -12 23 -12 13 0 14 -2 2 -17 -13 -17
-13 -17 13 -1 26 17 58 35 148 86 97 54 96 53 40 82 -41 21 -49 23 -51 15z
m79 -39 c2 -2 -1 -7 -7 -11 -6 -3 -11 -1 -11 4 0 6 -5 11 -11 11 -6 0 -9 -7
-5 -15 3 -9 -3 -19 -14 -25 -11 -6 -20 -8 -20 -4 0 4 -9 -1 -20 -11 -11 -10
-23 -15 -27 -11 -4 3 3 13 15 22 12 8 20 19 17 24 -3 5 0 12 6 15 5 4 8 13 5
21 -4 12 1 11 31 -1 20 -9 39 -17 41 -19z m-109 -15 c9 -6 10 -10 2 -16 -16
-9 -44 2 -36 15 8 12 16 12 34 1z"/>
<path d="M1197 405 c3 -8 9 -12 14 -9 12 7 11 11 -5 17 -10 4 -13 1 -9 -8z"/>
<path d="M1013 360 c-53 -32 -42 -52 14 -28 39 17 39 18 23 29 -11 8 -6 9 20
5 25 -4 31 -3 20 4 -22 15 -41 12 -77 -10z m7 -20 c-8 -5 -19 -10 -25 -10 -5
0 -3 5 5 10 8 5 20 10 25 10 6 0 3 -5 -5 -10z"/>
<path d="M914 302 c-21 -15 -52 -33 -67 -40 -16 -7 -25 -17 -22 -23 4 -6 1 -9
-6 -8 -24 5 -79 -30 -73 -46 7 -17 24 -20 24 -5 0 6 -6 10 -12 10 -21 1 21 22
52 26 16 3 32 0 36 -7 5 -9 2 -10 -10 -6 -9 4 -15 3 -12 -2 3 -5 -2 -15 -11
-22 -14 -12 -16 -12 -11 1 4 11 -1 16 -16 17 -19 2 -19 0 7 -22 l28 -25 36 20
c37 20 50 44 31 57 -7 4 -9 -2 -6 -15 4 -15 2 -22 -8 -22 -8 0 -11 6 -8 15 4
9 0 15 -7 15 -11 0 -11 3 1 10 13 8 12 10 -3 10 -10 0 -16 4 -12 10 7 12 71
-24 68 -38 -2 -6 4 -9 13 -5 13 5 13 8 -2 24 -20 23 -9 42 22 36 21 -4 22 -2
12 11 -9 11 -9 14 -1 9 6 -4 15 -2 19 4 4 8 9 7 15 -2 6 -10 11 -11 19 -3 9 9
9 14 1 19 -18 10 -67 -4 -87 -26 -9 -10 -24 -19 -33 -19 -17 1 -18 0 49 50 39
30 18 23 -26 -8z m-59 -122 c-3 -5 -11 -10 -16 -10 -6 0 -7 5 -4 10 3 6 11 10
16 10 6 0 7 -4 4 -10z"/>
<path d="M456 293 c-4 -9 -3 -20 2 -25 6 -6 10 1 10 16 0 30 -3 32 -12 9z"/>
<path d="M486 266 c4 -11 -1 -14 -20 -10 -14 2 -26 2 -26 -2 0 -7 74 -134 94
-159 16 -20 21 -10 10 19 -3 9 -10 13 -15 10 -6 -3 -7 5 -4 19 4 15 2 28 -6
32 -9 6 -11 2 -6 -16 6 -23 5 -23 -9 -5 -8 11 -11 28 -8 38 3 10 2 17 -3 16
-12 -4 -15 5 -8 24 4 10 12 15 17 12 6 -4 5 3 -1 15 -13 24 -23 28 -15 7z"/>
<path d="M972 270 c2 -7 -7 -16 -18 -19 -19 -5 -20 -8 -8 -19 12 -11 15 -10
20 2 3 9 14 16 24 16 11 0 22 5 25 10 3 6 2 10 -4 10 -5 0 -17 3 -26 6 -10 4
-15 2 -13 -6z"/>
<path d="M505 206 c0 -13 2 -23 5 -21 12 7 31 -12 35 -35 2 -13 9 -26 14 -30
11 -6 10 -28 -3 -48 -12 -20 13 -45 30 -31 12 10 11 14 -3 25 -15 11 -15 13
-3 14 34 0 41 -16 20 -43 -12 -15 -17 -27 -11 -27 6 0 11 5 11 10 0 6 6 10 14
10 23 0 27 29 7 60 -10 17 -21 27 -24 24 -6 -7 -32 15 -35 29 -2 14 -45 87
-51 87 -3 0 -6 -11 -6 -24z m75 -157 c0 -6 -4 -7 -10 -4 -5 3 -10 11 -10 16 0
6 5 7 10 4 6 -3 10 -11 10 -16z"/>
<path d="M670 161 c-25 -15 -45 -33 -44 -39 1 -7 2 -19 3 -28 0 -8 6 -12 11
-9 9 6 14 -8 11 -27 -2 -13 5 -10 66 27 32 19 52 36 46 36 -7 1 -17 2 -23 3
-17 2 -13 20 6 26 16 6 15 7 -5 13 -13 3 -20 10 -16 16 10 17 -6 12 -55 -18z
m39 -16 c-25 -14 -61 -8 -38 5 7 5 19 6 27 2 10 -3 13 -1 8 6 -5 8 -2 10 10 5
14 -5 13 -8 -7 -18z m-9 -20 c26 8 36 -13 14 -30 -26 -20 -41 -18 -64 5 -25
25 -17 45 11 29 11 -5 28 -7 39 -4z"/>
<path d="M675 100 c-3 -5 -2 -10 4 -10 5 0 13 5 16 10 3 6 2 10 -4 10 -5 0
-13 -4 -16 -10z"/>
<path d="M765 139 c-4 -5 3 -9 14 -9 26 0 35 15 11 17 -11 1 -22 -2 -25 -8z"/>
</g>
</svg>
