<?xml version="1.0" standalone="no"?>
<!DOCTYPE svg PUBLIC "-//W3C//DTD SVG 20010904//EN"
 "http://www.w3.org/TR/2001/REC-SVG-20010904/DTD/svg10.dtd">
<svg version="1.0" xmlns="http://www.w3.org/2000/svg"
 width="225.000000pt" height="225.000000pt" viewBox="0 0 225.000000 225.000000"
 preserveAspectRatio="xMidYMid meet">

<g transform="translate(0.000000,225.000000) scale(0.100000,-0.100000)"
fill="#000000" stroke="none">
<path d="M435 2061 c-11 -5 -29 -19 -40 -31 -20 -22 -20 -38 -23 -694 -1 -369
0 -681 3 -693 8 -35 51 -78 80 -81 15 -1 24 2 20 8 -3 6 -15 10 -25 10 -10 0
-30 14 -44 30 l-25 31 -1 654 c0 522 2 655 12 655 10 0 10 2 0 9 -37 23 30
101 86 101 35 0 77 -25 90 -55 9 -19 12 -189 12 -656 l0 -631 -31 26 c-20 17
-42 26 -65 26 -38 0 -94 -24 -94 -41 0 -6 12 -1 26 10 55 43 145 16 159 -49
l7 -30 216 0 c206 -1 216 -2 187 -17 l-30 -16 50 -24 c28 -13 49 -27 48 -32
-1 -4 9 -6 22 -3 22 4 25 10 26 51 1 25 1 49 0 54 -1 4 149 6 331 5 l333 -3 3
-47 3 -48 -331 0 c-181 0 -330 -3 -330 -7 0 -5 155 -8 345 -8 190 0 341 2 335
3 -5 2 -10 28 -10 58 0 48 2 54 21 54 20 0 21 -4 17 -59 l-4 -60 46 1 c49 0
47 -3 51 69 3 50 -18 59 -148 59 l-113 0 0 621 c0 408 -4 627 -10 640 -10 18
-27 19 -529 19 l-519 0 -12 31 c-23 54 -90 82 -145 60z m1193 -113 c9 -9 12
-164 12 -635 l0 -622 -287 -6 c-159 -3 -395 -8 -525 -10 l-238 -6 0 646 0 645
513 0 c386 0 516 -3 525 -12z m254 -1280 c25 -21 28 -46 9 -70 -15 -18 -22
-20 -33 -10 -8 6 -19 8 -23 4 -5 -4 -5 -1 -1 6 6 10 11 10 22 1 17 -14 27 7
22 43 -2 17 -9 22 -26 21 -13 -2 -21 1 -17 7 8 14 28 13 47 -2z m-792 -43 c0
-25 -2 -45 -5 -45 -4 0 -19 7 -35 15 -36 18 -39 48 -7 63 40 19 47 15 47 -33z"/>
<path d="M757 1893 c-14 -14 -7 -81 9 -87 24 -9 687 -7 702 3 8 5 12 23 10 47
l-3 39 -356 3 c-195 1 -358 -1 -362 -5z m708 -13 c3 -5 -121 -9 -331 -10 -185
0 -341 -3 -345 -6 -5 -3 -9 -12 -9 -20 0 -9 5 -12 12 -8 7 4 8 3 4 -4 -16 -26
-36 -12 -36 23 l0 35 349 0 c210 0 352 -4 356 -10z"/>
<path d="M652 1548 l3 -193 210 0 210 0 3 193 c1 105 -1 192 -5 192 -5 0 -8
-84 -8 -187 l0 -188 -24 3 c-14 1 -39 19 -58 39 -26 30 -35 35 -45 25 -6 -6
-16 -12 -20 -12 -15 0 -8 27 12 45 19 17 21 16 75 -41 31 -33 52 -50 46 -39
-5 11 -31 41 -58 68 l-49 47 -25 -26 -24 -26 -43 49 -43 48 -47 -55 c-26 -30
-59 -68 -74 -85 l-28 -30 3 183 c1 100 -1 182 -6 182 -4 0 -6 -87 -5 -192z
m287 -144 c23 -1 28 11 9 19 -7 3 -8 6 -2 6 5 1 20 -12 31 -27 l21 -28 -134
-1 c-141 0 -141 0 -101 45 11 12 15 22 9 22 -6 0 -16 -8 -21 -17 -21 -35 -36
-50 -60 -58 -19 -6 -10 10 45 78 l69 86 57 -62 c32 -36 65 -62 77 -63z"/>
<path d="M795 1476 c-14 -10 -16 -17 -9 -27 6 -8 9 -27 8 -44 -2 -22 -1 -26 6
-15 5 8 10 25 10 37 0 29 16 38 30 16 10 -17 10 -16 8 2 -3 16 -10 19 -33 17
-29 -3 -29 -3 -10 12 25 19 16 21 -10 2z"/>
<path d="M857 1399 c15 -15 66 -22 61 -8 -2 6 -19 13 -37 14 -20 2 -29 -1 -24
-6z"/>
<path d="M688 1733 c6 -2 18 -2 25 0 6 3 1 5 -13 5 -14 0 -19 -2 -12 -5z"/>
<path d="M1242 1703 c59 -2 158 -2 220 0 62 1 14 3 -107 3 -121 0 -172 -2
-113 -3z"/>
<path d="M753 1633 c34 -39 5 -85 -31 -49 -14 13 -14 20 -4 36 7 11 8 20 3 20
-13 0 -23 -34 -15 -53 3 -9 15 -19 25 -22 45 -15 69 54 27 76 -22 12 -22 11
-5 -8z"/>
<path d="M1253 1643 c59 -2 155 -2 215 0 59 1 10 3 -108 3 -118 0 -167 -2
-107 -3z"/>
<path d="M1242 1513 c59 -2 158 -2 220 0 62 1 14 3 -107 3 -121 0 -172 -2
-113 -3z"/>
<path d="M1242 1453 c59 -2 158 -2 220 0 62 1 14 3 -107 3 -121 0 -172 -2
-113 -3z"/>
<path d="M1242 1393 c59 -2 158 -2 220 0 62 1 14 3 -107 3 -121 0 -172 -2
-113 -3z"/>
<path d="M888 1303 c128 -2 335 -2 460 0 125 1 20 2 -233 2 -253 0 -355 -1
-227 -2z"/>
<path d="M888 1243 c128 -2 335 -2 460 0 125 1 20 2 -233 2 -253 0 -355 -1
-227 -2z"/>
<path d="M888 1183 c128 -2 335 -2 460 0 125 1 20 2 -233 2 -253 0 -355 -1
-227 -2z"/>
<path d="M883 1113 c125 -2 329 -2 455 0 125 1 22 2 -228 2 -250 0 -353 -1
-227 -2z"/>
<path d="M888 1053 c128 -2 335 -2 460 0 125 1 20 2 -233 2 -253 0 -355 -1
-227 -2z"/>
<path d="M1202 1012 c-9 -7 -12 -42 -10 -143 l3 -134 190 0 190 0 3 134 c2
101 -1 136 -10 143 -7 4 -76 7 -153 6 l-140 -2 145 -6 145 -5 0 -130 0 -130
-183 -3 -183 -2 3 132 3 133 35 6 c34 6 34 6 5 8 -16 0 -36 -3 -43 -7z"/>
<path d="M768 1003 c68 -2 176 -2 240 0 64 1 9 3 -123 3 -132 0 -185 -2 -117
-3z"/>
<path d="M773 943 c64 -2 170 -2 235 0 64 1 11 3 -118 3 -129 0 -182 -2 -117
-3z"/>
<path d="M792 883 c59 -2 158 -2 220 0 62 1 14 3 -107 3 -121 0 -172 -2 -113
-3z"/>
<path d="M773 813 c64 -2 170 -2 235 0 64 1 11 3 -118 3 -129 0 -182 -2 -117
-3z"/>
<path d="M773 753 c64 -2 170 -2 235 0 64 1 11 3 -118 3 -129 0 -182 -2 -117
-3z"/>
<path d="M358 563 c7 -3 16 -2 19 1 4 3 -2 6 -13 5 -11 0 -14 -3 -6 -6z"/>
<path d="M658 563 c7 -3 16 -2 19 1 4 3 -2 6 -13 5 -11 0 -14 -3 -6 -6z"/>
<path d="M718 563 c6 -2 18 -2 25 0 6 3 1 5 -13 5 -14 0 -19 -2 -12 -5z"/>
<path d="M848 563 c7 -3 16 -2 19 1 4 3 -2 6 -13 5 -11 0 -14 -3 -6 -6z"/>
<path d="M948 563 c6 -2 18 -2 25 0 6 3 1 5 -13 5 -14 0 -19 -2 -12 -5z"/>
<path d="M565 269 c-4 -27 -4 -53 -1 -56 3 -4 6 5 6 18 0 13 4 30 9 38 7 10
11 5 16 -18 9 -41 21 -39 37 7 l13 37 6 -45 6 -45 1 52 c2 64 -13 77 -29 24
-13 -45 -24 -45 -34 -1 -11 48 -23 44 -30 -11z"/>
<path d="M1212 268 l-2 -58 33 1 c29 1 30 2 7 8 -21 6 -26 14 -31 56 l-6 50
-1 -57z"/>
<path d="M1597 297 c-2 -7 -2 -29 1 -49 3 -27 9 -38 21 -37 10 0 11 2 4 6 -15
5 -18 60 -4 65 5 2 3 8 -4 15 -10 9 -14 9 -18 0z"/>
<path d="M703 283 c23 -6 22 -20 -4 -28 -23 -8 -22 -36 1 -43 12 -4 13 -3 3
10 -7 8 -10 18 -6 21 11 12 23 8 23 -8 0 -8 5 -15 10 -15 14 0 13 43 -2 58 -7
7 -19 11 -27 11 -12 -1 -12 -2 2 -6z"/>
<path d="M760 271 c-12 -23 -5 -47 16 -55 11 -4 11 -2 2 13 -13 22 -3 55 15
48 7 -2 12 -20 12 -43 0 -34 -3 -39 -23 -38 -16 0 -20 -2 -12 -10 20 -20 45 8
48 55 3 41 1 45 -22 47 -16 1 -29 -5 -36 -17z"/>
<path d="M863 283 c23 -6 22 -19 -3 -26 -11 -3 -20 -12 -20 -20 0 -37 45 -30
52 8 6 27 -8 46 -31 44 -12 -1 -12 -2 2 -6z m17 -41 c0 -13 -12 -22 -22 -16
-10 6 -1 24 13 24 5 0 9 -4 9 -8z"/>
<path d="M928 281 l24 -6 -21 -27 c-28 -35 -27 -38 12 -37 23 1 26 3 10 6 -24
5 -30 18 -13 28 5 3 15 15 20 26 10 17 7 19 -22 18 -28 -1 -30 -2 -10 -8z"/>
<path d="M1021 246 l2 -41 6 35 c4 22 12 35 21 35 9 0 18 -13 22 -35 l6 -35
-1 40 c-2 36 -5 40 -29 41 -26 1 -28 -1 -27 -40z"/>
<path d="M1113 283 c-30 -12 -7 -74 27 -72 9 0 6 4 -7 9 -31 13 -29 30 3 30
19 0 25 5 22 17 -3 18 -24 26 -45 16z m32 -13 c3 -5 -3 -10 -15 -10 -12 0 -18
5 -15 10 3 6 10 10 15 10 5 0 12 -4 15 -10z"/>
<path d="M1303 284 c23 -7 22 -20 -3 -27 -20 -5 -27 -31 -11 -41 5 -4 17 -3
26 0 24 10 16 68 -10 71 -16 1 -16 1 -2 -3z m17 -43 c0 -12 -20 -25 -27 -18
-7 7 6 27 18 27 5 0 9 -4 9 -9z"/>
<path d="M1351 283 c-1 -7 4 -24 11 -38 9 -21 9 -31 -2 -48 -12 -20 -12 -21 4
-8 20 17 48 80 42 95 -2 6 -7 -1 -11 -16 -4 -16 -10 -28 -14 -28 -4 0 -12 12
-18 28 -6 15 -11 22 -12 15z"/>
<path d="M1430 275 c-26 -31 13 -82 44 -56 19 16 21 42 4 59 -16 16 -33 15
-48 -3z m45 -5 c9 -15 -4 -50 -20 -50 -16 0 -26 25 -19 45 7 17 30 20 39 5z"/>
<path d="M1513 255 c2 -36 5 -40 30 -41 25 -1 27 1 26 40 l-2 41 -6 -35 c-4
-22 -12 -35 -21 -35 -9 0 -18 13 -22 35 l-6 35 1 -40z"/>
<path d="M980 243 c0 -43 5 -41 13 5 4 18 2 32 -3 32 -6 0 -10 -16 -10 -37z"/>
</g>
</svg>
