<?xml version="1.0" standalone="no"?>
<!DOCTYPE svg PUBLIC "-//W3C//DTD SVG 20010904//EN"
 "http://www.w3.org/TR/2001/REC-SVG-20010904/DTD/svg10.dtd">
<svg version="1.0" xmlns="http://www.w3.org/2000/svg"
 width="1200.000000pt" height="900.000000pt" viewBox="0 0 1200.000000 900.000000"
 preserveAspectRatio="xMidYMid meet">

<g transform="translate(0.000000,900.000000) scale(0.100000,-0.100000)"
fill="#000000" stroke="none">
<path d="M4500 7480 l0 -310 208 -2 c132 -2 206 -7 205 -13 -2 -6 -188 -11
-526 -13 l-523 -2 -44 -45 -44 -45 -93 0 -93 0 0 -225 0 -225 135 0 135 0 0
-932 0 -933 -117 -105 c-170 -154 -153 -153 -153 -8 l0 123 127 0 c92 0 127 3
131 13 3 9 -26 12 -122 12 l-126 0 0 120 0 120 125 0 c77 0 125 4 125 10 0 6
-65 10 -176 10 l-175 0 3 51 3 51 173 -1 c113 -1 172 2 172 9 0 6 -63 10 -184
10 l-183 0 -2 -70 -2 -70 44 0 44 0 6 -385 c3 -211 3 -393 0 -405 -4 -16 -13
-20 -49 -20 l-44 0 0 -75 0 -75 185 0 c117 0 185 4 185 10 0 6 -63 10 -170 10
l-170 0 0 50 0 50 170 0 c94 0 170 4 170 8 0 5 -12 8 -27 7 -16 -1 -75 2 -133
5 l-105 7 138 1 137 2 0 -1103 0 -1102 -106 -95 c-58 -52 -110 -97 -115 -98
-6 -3 -9 41 -7 108 l3 112 104 2 c76 1 105 5 109 14 3 10 -19 13 -104 11
l-109 -2 0 338 0 338 109 -2 c85 -2 107 1 104 11 -4 9 -33 13 -109 14 -89 1
-104 3 -107 17 -2 10 -11 17 -20 18 -9 0 -143 1 -296 2 l-279 2 1 350 c1 193
1 353 2 358 0 4 182 7 405 7 398 0 405 0 405 20 0 20 -7 20 -405 20 l-405 0 0
88 c0 48 -2 144 -3 214 l-2 127 40 6 c151 23 220 52 247 106 13 25 18 58 18
126 l0 92 -157 3 c-87 2 -294 2 -460 0 l-303 -3 0 -1379 0 -1380 -170 0 -170
0 0 -40 0 -40 228 0 c125 0 472 -2 772 -5 300 -3 1315 -10 2255 -16 941 -5
2378 -14 3195 -19 817 -5 1606 -10 1753 -10 l268 0 -3 38 -3 37 -107 3 -108 3
0 1384 0 1385 -460 0 -460 0 0 -97 c0 -122 14 -149 94 -187 96 -45 205 -57
350 -36 118 17 216 75 216 127 0 13 4 23 10 23 23 0 59 -24 69 -47 8 -17 11
-383 11 -1288 l0 -1265 -40 0 -40 0 0 690 0 690 -1000 0 -1000 0 0 665 1 665
134 0 134 0 3 143 4 142 -71 68 c-38 38 -100 97 -138 130 l-67 62 0 928 0 927
134 0 133 0 6 122 c4 66 7 168 7 225 l0 103 -91 0 -91 0 -50 45 -50 45 -504 0
c-441 0 -504 2 -504 15 0 13 36 15 268 15 l267 0 2 310 1 310 -1554 0 -1554 0
0 -310z m3062 0 l3 -270 -1512 0 -1513 0 0 273 0 272 1510 -3 1509 -2 3 -270z
m-744 -327 c3 -10 -166 -13 -822 -13 -729 0 -826 2 -826 15 0 13 95 15 822 13
646 -2 822 -6 826 -15z m-1688 -43 l0 -40 -85 0 -85 0 0 40 0 40 85 0 85 0 0
-40z m1900 0 l0 -40 -85 0 -85 0 0 40 0 40 85 0 85 0 0 -40z m-2114 -42 l-1
-33 128 -3 127 -3 0 36 0 35 825 0 825 0 0 -35 0 -35 125 0 125 0 0 35 0 35
498 0 499 0 23 -25 23 -25 -126 0 -127 0 0 -60 0 -60 -1830 0 -1830 0 0 60 0
60 -180 0 c-99 0 -180 3 -180 6 0 3 10 14 23 25 21 17 48 18 538 19 l517 0 -2
-32z m-763 -118 l-6 -60 1877 0 1876 0 0 60 0 60 210 0 211 0 -3 -102 -3 -103
-2342 -3 -2343 -2 0 105 0 105 264 0 264 0 -5 -60z m4157 -250 l0 -60 -2340 0
-2340 0 0 60 0 60 2340 0 2340 0 0 -60z m-270 -1150 l0 -1050 -2070 0 -2070 0
0 1050 0 1050 2070 0 2070 0 0 -1050z m-4180 -960 l0 -90 -97 0 -98 1 95 89
c52 49 96 89 98 90 1 0 2 -40 2 -90z m4290 35 c25 -23 65 -60 90 -83 l45 -41
-102 -1 -103 0 0 91 c0 101 -2 100 70 34z m162 -275 l3 -100 -470 -1 c-258 -1
-549 -1 -645 -1 -96 0 -939 1 -1872 1 l-1698 1 0 100 0 100 2339 0 2340 0 3
-100z m-5022 -135 l0 -44 -335 -3 -335 -3 -32 -33 -33 -32 -3 -1280 -2 -1280
-45 0 -45 0 0 1360 0 1360 415 0 415 0 0 -45z m7000 -1355 l0 -1360 -45 0 -45
0 -2 1280 -3 1280 -33 32 -32 33 -340 3 -340 3 0 44 0 45 420 0 420 0 0 -1360z
m-2250 110 l0 -1230 -1410 0 -1410 0 0 900 0 900 -425 0 -425 0 0 -900 0 -900
-235 0 -235 0 0 1230 0 1230 2070 0 2070 0 0 -1230z m-5360 1136 c0 -57 121
-117 266 -131 l69 -7 -3 -594 -2 -594 -125 0 -125 0 0 -505 0 -504 66 -3 65
-3 1 -112 c0 -62 -2 -113 -6 -113 -3 0 -71 0 -151 0 l-145 0 0 1259 c0 803 4
1269 10 1286 16 43 80 60 80 21z m613 18 c14 -14 -18 -47 -67 -70 -120 -55
-332 -53 -446 4 -38 19 -56 34 -58 50 l-3 22 284 0 c156 0 287 -3 290 -6z
m6737 -48 c0 -39 -80 -80 -191 -97 -132 -20 -303 9 -360 62 -17 16 -28 33 -24
39 4 6 107 10 291 10 239 0 284 -2 284 -14z m-4852 -1459 l2 -877 -385 0 -385
0 0 880 0 880 383 -3 382 -4 3 -876z m4837 -449 l0 -633 -147 -3 -148 -3 0 56
0 55 145 0 145 0 0 80 0 80 -60 0 -60 0 0 195 0 195 -605 2 -605 3 0 -197 0
-198 -60 0 -60 0 0 -80 0 -80 165 0 165 0 0 -55 0 -55 -265 0 -265 0 0 110 0
109 -140 127 -140 127 0 397 c0 218 2 399 4 401 2 2 438 3 968 2 l963 -3 0
-632z m-6425 107 l0 -465 -395 0 -395 0 0 465 0 465 395 0 395 0 0 -465z
m6260 -165 l0 -40 -565 0 -565 0 0 40 0 40 565 0 565 0 0 -40z m0 -125 l0 -45
-565 0 -565 0 0 45 0 45 565 0 565 0 0 -45z m-1630 -165 l65 -59 -102 -1 -103
0 0 91 0 91 38 -31 c20 -17 66 -58 102 -91z m-4360 25 l0 -85 -97 0 -98 1 90
84 c50 46 93 84 98 85 4 0 7 -38 7 -85z m5990 5 l0 -40 -565 0 -565 0 0 40 0
40 565 0 565 0 0 -40z m-6490 -201 l0 -120 -150 2 -150 2 0 119 0 118 150 0
150 0 0 -121z m236 105 c-3 -9 -6 -63 -6 -120 l0 -104 -35 0 -35 0 0 120 0
120 41 0 c33 0 40 -3 35 -16z m6374 -34 l0 -40 -685 0 -685 0 0 40 0 40 685 0
685 0 0 -40z m-5640 -60 c0 -36 -2 -40 -25 -40 -23 0 -25 -4 -25 -45 l0 -45
-325 0 -325 0 0 85 0 85 350 0 350 0 0 -40z m880 0 l0 -40 -420 0 -420 0 0 40
0 40 420 0 420 0 0 -40z m3102 -61 l-3 -101 -622 6 c-342 3 -1017 9 -1499 12
l-878 6 0 49 c0 48 -1 49 -30 49 -28 0 -30 2 -30 40 l0 40 1533 0 1532 0 -3
-101z m1288 -14 l0 -55 -295 0 -295 0 0 55 0 55 295 0 295 0 0 -55z m-4332
-37 l3 -28 -378 0 c-208 0 -422 3 -475 7 -94 6 -98 7 -98 30 l0 23 473 -2 472
-3 3 -27z"/>
<path d="M5461 7593 c-6 -21 -11 -43 -11 -49 0 -6 -13 -14 -30 -17 -28 -6 -43
-27 -19 -27 6 0 -3 -11 -19 -25 -17 -14 -32 -25 -35 -25 -2 0 -10 14 -17 31
-10 22 -10 33 -1 42 15 15 14 50 -1 45 -7 -2 -21 -21 -31 -41 -33 -66 -120
-115 -146 -83 -11 13 -7 20 24 47 27 24 35 39 33 57 -4 37 -24 38 -58 4 -24
-25 -30 -39 -30 -74 0 -52 13 -68 55 -68 29 0 90 35 106 62 6 9 11 9 23 -1 25
-21 19 -47 -14 -61 -30 -13 -37 -24 -21 -34 12 -8 76 36 129 87 45 44 48 42
32 -13 -12 -40 -5 -70 16 -70 10 0 13 7 8 24 -3 13 -1 41 5 64 10 36 15 40 49
44 20 3 38 4 40 3 2 -1 -5 -19 -14 -38 -14 -30 -15 -39 -4 -52 18 -21 27 -19
63 16 27 28 32 29 42 15 17 -23 39 -20 74 9 l30 26 3 -33 c4 -48 38 -50 82 -6
l34 34 11 -23 c13 -29 40 -29 75 -2 l26 20 0 -40 c0 -52 16 -52 36 -1 18 44
56 80 85 80 21 0 25 15 8 25 -18 12 -69 -17 -85 -46 -8 -16 -17 -29 -20 -29
-6 0 0 34 12 64 4 10 1 16 -9 16 -9 0 -18 -9 -22 -20 -3 -10 -20 -31 -37 -45
-42 -35 -61 -20 -52 42 7 49 -8 59 -24 15 -14 -40 -61 -92 -84 -92 -18 0 -19
4 -13 53 l8 52 -52 -48 c-28 -26 -56 -45 -62 -41 -6 3 -9 24 -7 46 4 54 -18
70 -64 46 -37 -20 -114 -28 -111 -13 1 6 4 27 8 48 5 24 3 37 -3 37 -6 0 -16
-17 -21 -37z m-271 -51 c0 -5 -11 -19 -25 -32 -28 -26 -33 -16 -9 18 15 22 34
30 34 14z m440 -12 c0 -20 -55 -90 -71 -90 -16 0 -10 31 13 63 35 50 58 61 58
27z"/>
<path d="M6596 7585 c-10 -24 -22 -35 -35 -35 -12 0 -21 -4 -21 -10 0 -5 7
-10 15 -10 26 0 16 -28 -20 -56 -40 -30 -65 -26 -65 11 0 34 -17 65 -35 65 -7
0 -29 -19 -49 -42 l-36 -43 7 50 6 50 -42 -47 c-25 -28 -51 -48 -63 -48 -18 0
-20 5 -15 40 6 46 -10 65 -47 56 -43 -11 -93 -105 -74 -139 13 -24 22 -21 63
14 29 26 36 28 41 15 9 -23 38 -20 73 10 l31 26 0 -31 c0 -42 19 -39 54 9 17
22 35 40 42 40 7 0 16 -17 21 -37 7 -32 13 -39 37 -41 19 -2 36 4 52 19 l24
22 0 -26 c0 -25 23 -57 41 -57 15 0 74 58 66 66 -4 4 -17 -2 -30 -14 -39 -37
-51 -29 -44 29 4 29 9 54 11 57 3 2 25 7 51 9 56 7 59 23 4 23 -40 0 -40 0
-34 30 9 42 -11 39 -29 -5z m-376 -55 c0 -20 -55 -90 -71 -90 -19 0 -8 37 22
73 34 41 49 47 49 17z"/>
<path d="M4980 7465 c0 -60 3 -75 15 -75 8 0 15 7 15 16 0 34 34 86 67 102 37
18 43 32 12 32 -11 0 -34 -13 -50 -29 l-29 -29 0 29 c0 19 -5 29 -15 29 -12 0
-15 -15 -15 -75z"/>
<path d="M6736 7501 c-6 -9 123 -26 131 -17 3 3 2 9 -2 15 -7 13 -121 15 -129
2z"/>
<path d="M4330 6185 l0 -95 49 0 49 0 1 -505 1 -505 -50 0 -50 0 0 -95 0 -95
625 0 625 0 0 95 0 95 -50 0 -50 0 0 505 0 505 45 0 45 0 0 95 0 95 -620 0
-620 0 0 -95z m1208 0 l3 -60 -588 2 -588 2 -3 47 c-2 25 -1 53 2 60 5 12 99
14 588 12 l583 -3 3 -60z m-98 -240 l0 -145 -485 0 -485 0 0 145 0 145 485 0
485 0 0 -145z m0 -525 l0 -340 -490 0 -490 0 0 340 0 340 490 0 490 0 0 -340z
m100 -435 l0 -55 -585 0 -585 0 0 55 0 55 585 0 585 0 0 -55z"/>
<path d="M4690 5212 c-13 -10 -24 -30 -26 -43 -1 -13 -3 -26 -3 -27 -1 -2 -15
8 -32 22 -36 30 -68 33 -97 9 -27 -23 -34 -73 -12 -73 6 0 10 6 9 13 -3 24 14
58 27 53 7 -3 15 0 18 7 2 7 5 3 5 -8 1 -16 3 -17 10 -6 7 12 14 10 36 -8 21
-16 31 -18 41 -10 17 14 18 5 2 -24 -10 -20 -10 -21 6 -8 10 8 15 23 13 33 -3
10 0 18 6 18 8 0 8 3 -1 8 -9 6 -7 14 8 30 12 12 24 22 28 22 13 0 48 -29 37
-30 -6 0 -16 5 -22 11 -6 6 -16 8 -22 5 -16 -10 -13 -33 5 -40 24 -9 31 -7 12
5 -10 5 -18 15 -18 21 0 9 3 9 12 0 7 -7 21 -12 31 -12 13 0 17 -5 13 -15 -3
-9 0 -15 10 -15 9 0 12 -5 8 -11 -13 -22 41 3 62 28 l22 25 -4 -28 c-4 -25 -3
-26 6 -9 9 17 10 15 7 -12 -2 -18 0 -33 5 -33 4 0 8 9 8 20 0 12 7 20 16 20
14 0 14 -3 4 -15 -8 -10 -9 -15 -2 -15 7 0 9 -7 5 -17 -4 -11 -3 -14 5 -9 7 4
12 23 12 41 0 62 -82 87 -110 35 -14 -25 -30 -26 -30 -1 0 23 -44 61 -70 61
-10 0 -28 -8 -40 -18z"/>
<path d="M5146 5209 c-14 -11 -26 -29 -26 -40 0 -24 -1 -24 -45 2 -23 14 -44
19 -60 15 -32 -8 -59 -49 -50 -76 6 -18 8 -19 22 -5 8 9 13 25 10 36 -4 15 1
23 19 30 34 12 35 12 24 -16 -6 -15 -6 -26 1 -30 5 -4 9 -3 8 2 -1 4 -1 15 1
23 1 11 4 9 10 -5 8 -18 9 -18 9 -2 1 10 6 15 12 12 6 -4 8 -13 5 -21 -3 -8
-1 -14 4 -14 6 0 10 4 10 9 0 5 9 11 20 14 12 3 20 14 20 25 0 24 16 38 23 20
4 -9 6 -7 6 3 1 11 10 17 26 17 27 0 30 -5 15 -28 -8 -12 -12 -13 -19 -2 -7
11 -9 11 -14 -1 -4 -11 1 -14 19 -12 20 2 24 -2 24 -26 0 -16 4 -29 8 -29 4 0
7 19 5 42 -1 28 1 38 6 29 5 -8 7 -20 4 -27 -2 -6 0 -15 6 -18 21 -13 3 58
-19 76 -29 23 -51 23 -84 -3z"/>
<path d="M5295 5175 c-14 -13 -25 -30 -24 -37 0 -10 2 -10 6 0 2 6 11 12 19
12 9 0 13 4 9 9 -3 6 3 15 14 20 28 16 38 13 16 -3 -18 -13 -17 -13 8 -13 16
0 24 4 20 10 -3 6 -1 7 6 3 6 -4 9 -11 6 -16 -3 -5 -1 -11 4 -14 5 -3 7 -15 4
-26 -3 -11 0 -20 6 -20 19 0 12 59 -9 80 -27 27 -56 25 -85 -5z"/>
<path d="M4547 5131 c-3 -11 1 -22 8 -24 8 -4 10 3 7 19 -5 29 -8 30 -15 5z"/>
<path d="M4583 5133 c9 -2 17 -8 17 -13 0 -4 11 -10 25 -12 14 -3 25 -1 25 3
0 5 -9 9 -19 9 -11 0 -23 5 -26 10 -3 6 -14 9 -23 9 -15 -1 -15 -2 1 -6z"/>
<path d="M5012 5120 c0 -14 2 -19 5 -12 2 6 2 18 0 25 -3 6 -5 1 -5 -13z"/>
<path d="M4830 5120 c-13 -8 -13 -10 2 -10 9 0 20 5 23 10 8 13 -5 13 -25 0z"/>
<path d="M5160 5120 c0 -5 4 -10 9 -10 6 0 13 5 16 10 3 6 -1 10 -9 10 -9 0
-16 -4 -16 -10z"/>
<path d="M4715 5110 c-3 -6 1 -7 9 -4 18 7 21 14 7 14 -6 0 -13 -4 -16 -10z"/>
<path d="M5068 5103 c7 -3 16 -2 19 1 4 3 -2 6 -13 5 -11 0 -14 -3 -6 -6z"/>
<path d="M6290 6185 l0 -95 50 0 50 0 0 -505 0 -505 -50 0 -50 0 0 -95 0 -95
625 0 625 0 0 95 0 95 -50 0 -50 0 0 505 0 505 45 0 45 0 0 95 0 95 -620 0
-620 0 0 -95z m1200 0 l0 -55 -580 0 -580 0 0 55 0 55 580 0 580 0 0 -55z
m-92 -242 l3 -143 -486 0 -485 0 0 145 0 145 483 -2 482 -3 3 -142z m2 -523
l0 -340 -490 0 -490 0 0 340 0 340 490 0 490 0 0 -340z m100 -435 l0 -55 -585
0 -585 0 0 55 0 55 585 0 585 0 0 -55z"/>
<path d="M6645 5205 c-14 -13 -25 -34 -25 -45 0 -21 -1 -21 -31 4 -35 30 -49
32 -89 11 -24 -12 -30 -22 -30 -48 1 -30 2 -31 15 -13 8 10 12 22 10 26 -6 10
36 30 56 27 23 -4 69 -43 69 -58 0 -11 2 -11 10 1 5 8 5 17 1 20 -5 3 -4 16 1
30 7 20 11 22 18 10 8 -12 10 -12 10 -1 0 9 7 11 21 8 13 -3 19 -1 16 6 -2 7
-15 11 -28 10 -20 -2 -21 -1 -7 7 21 13 71 2 61 -13 -4 -6 -1 -7 7 -2 10 6 12
4 7 -9 -4 -10 -3 -15 3 -11 6 3 10 -3 10 -14 0 -12 4 -21 8 -21 18 0 -2 61
-26 80 -33 27 -58 25 -87 -5z"/>
<path d="M7102 5207 c-12 -13 -22 -33 -22 -45 0 -25 -15 -29 -24 -7 -7 20 -55
38 -83 30 -31 -7 -56 -48 -48 -76 6 -17 9 -19 16 -8 5 8 6 21 4 30 -12 37 87
46 110 10 11 -20 25 -12 39 24 8 19 17 35 20 35 3 0 1 -11 -5 -24 -8 -17 -8
-29 0 -42 10 -16 10 -15 5 7 -6 27 9 48 21 29 3 -5 11 -10 17 -10 6 0 4 8 -5
18 -18 20 -13 32 12 32 14 0 14 -2 1 -11 -12 -8 -10 -9 8 -4 22 6 23 5 17 -17
-4 -12 -4 -19 1 -15 4 4 14 -3 21 -15 12 -23 12 -23 13 5 0 34 -40 77 -73 77
-13 0 -33 -10 -45 -23z"/>
<path d="M6802 5184 c-12 -8 -21 -25 -21 -37 1 -17 2 -18 6 -4 2 9 11 17 19
17 8 0 12 5 9 10 -3 6 -2 10 4 10 5 0 13 -4 16 -10 3 -5 14 -10 23 -9 14 0 13
2 -3 10 l-20 9 20 -3 c26 -3 33 -44 8 -50 -15 -4 -14 -5 4 -6 12 0 24 -7 26
-13 3 -7 6 4 6 24 1 38 -25 68 -59 68 -9 0 -26 -7 -38 -16z"/>
<path d="M7262 5183 c-19 -17 -40 -63 -28 -63 3 0 13 14 21 30 9 17 20 28 25
25 4 -3 10 0 12 6 6 17 45 -22 52 -51 3 -14 3 -19 0 -12 -3 6 -10 10 -15 7 -5
-4 -3 -12 4 -19 17 -19 27 -10 27 25 0 33 -31 69 -59 69 -10 0 -28 -8 -39 -17z"/>
<path d="M7278 5151 c-10 -10 -18 -26 -17 -37 0 -14 2 -15 6 -4 3 8 17 25 31
37 18 15 22 23 12 22 -8 0 -23 -8 -32 -18z"/>
<path d="M7297 5130 c-11 -14 -13 -20 -4 -20 7 0 18 9 25 20 7 11 9 20 4 20
-4 0 -15 -9 -25 -20z"/>
<path d="M6580 5122 c0 -12 19 -26 26 -19 2 2 -2 10 -11 17 -9 8 -15 8 -15 2z"/>
<path d="M7040 5120 c0 -5 5 -10 11 -10 5 0 7 5 4 10 -3 6 -8 10 -11 10 -2 0
-4 -4 -4 -10z"/>
<path d="M7080 5115 c-11 -13 -10 -14 4 -9 9 3 16 10 16 15 0 13 -6 11 -20 -6z"/>
<path d="M5866 3498 c-9 -64 -56 -619 -56 -650 l0 -28 100 0 100 0 -2 -202 -3
-203 -92 -3 -93 -3 0 -94 0 -95 980 0 980 0 0 95 0 94 -67 3 -68 3 -3 203 -2
202 70 0 c68 0 70 1 70 25 0 30 -48 582 -56 648 l-6 47 -923 0 -924 0 -5 -42z
m1818 -40 c3 -18 15 -143 26 -278 11 -135 22 -262 25 -282 l5 -38 -946 0 -946
0 6 43 c3 23 15 155 26 292 12 138 23 260 26 273 l4 22 885 0 884 0 5 -32z
m-84 -844 l0 -206 -775 4 -775 3 0 203 0 202 775 0 775 0 0 -206z m140 -299
l0 -55 -940 0 -940 0 0 55 0 55 940 0 940 0 0 -55z"/>
<path d="M4530 3150 l0 -280 263 2 262 3 3 278 2 277 -265 0 -265 0 0 -280z
m488 3 l-3 -238 -220 3 -220 3 -3 234 -2 235 225 0 225 0 -2 -237z"/>
<path d="M4530 2270 l0 -280 260 0 260 0 0 280 0 280 -260 0 -260 0 0 -280z
m480 23 c0 -120 3 -228 6 -240 l6 -23 -226 0 -226 0 0 240 0 240 220 0 220 0
0 -217z"/>
<path d="M9183 5600 c0 -25 2 -35 4 -22 2 12 2 32 0 45 -2 12 -4 2 -4 -23z"/>
<path d="M3010 4938 c0 -565 4 -666 24 -600 3 9 5 251 5 537 0 286 0 550 1
588 l0 67 405 0 c257 0 405 4 405 10 0 6 -155 11 -420 12 l-420 3 0 -617z"/>
<path d="M9181 5414 c0 -11 3 -14 6 -6 3 7 2 16 -1 19 -3 4 -6 -2 -5 -13z"/>
<path d="M9183 5040 c0 -25 2 -35 4 -22 2 12 2 32 0 45 -2 12 -4 2 -4 -23z"/>
<path d="M8211 4934 c0 -11 3 -14 6 -6 3 7 2 16 -1 19 -3 4 -6 -2 -5 -13z"/>
<path d="M8408 3463 c7 -3 16 -2 19 1 4 3 -2 6 -13 5 -11 0 -14 -3 -6 -6z"/>
<path d="M8618 3463 c7 -3 16 -2 19 1 4 3 -2 6 -13 5 -11 0 -14 -3 -6 -6z"/>
<path d="M8888 3463 c7 -3 16 -2 19 1 4 3 -2 6 -13 5 -11 0 -14 -3 -6 -6z"/>
<path d="M9098 3463 c7 -3 16 -2 19 1 4 3 -2 6 -13 5 -11 0 -14 -3 -6 -6z"/>
<path d="M9183 3200 c0 -25 2 -35 4 -22 2 12 2 32 0 45 -2 12 -4 2 -4 -23z"/>
<path d="M3487 3123 c-4 -3 -7 -35 -7 -70 l0 -63 45 0 45 0 0 -95 c0 -78 3
-95 15 -95 12 0 15 17 15 90 l0 89 122 3 c92 2 122 6 126 17 4 11 -26 13 -169
10 l-174 -4 -3 53 -3 52 175 0 c111 0 176 4 176 10 0 11 -352 14 -363 3z"/>
<path d="M8418 2993 c12 -2 32 -2 45 0 12 2 2 4 -23 4 -25 0 -35 -2 -22 -4z"/>
<path d="M8968 2993 c17 -2 47 -2 65 0 17 2 3 4 -33 4 -36 0 -50 -2 -32 -4z"/>
<path d="M3650 2155 c0 -12 18 -15 100 -15 82 0 100 3 100 15 0 12 -18 15
-100 15 -82 0 -100 -3 -100 -15z"/>
</g>
</svg>
